<svg width="256" height="256" viewBox="0 0 256 256" fill="none" xmlns="http://www.w3.org/2000/svg">
<g clip-path="url(#clip0_7_12)">
<path d="M185.23 15.6308C204.171 15.6308 221.917 22.9575 235.322 36.3626C248.728 49.7677 256.054 67.5688 256 86.5096C256 105.45 253.5 110 243 125.5L233 111C243 96 241.347 100.5 241.347 86.5096C241.347 71.4763 235.54 57.3657 224.902 46.7285C214.265 36.1455 200.154 30.2841 185.175 30.2841C170.196 30.2841 156.032 36.1455 145.394 46.7827L133.237 58.9396C130.361 61.816 125.748 61.816 122.872 58.9396L110.606 46.6742C99.9689 36.0369 85.804 30.1756 70.7708 30.1756C55.7918 30.1756 41.6812 36.0369 31.0982 46.6199C20.461 57.2029 14.6539 71.3135 14.6539 86.3468C14.6539 101.38 20.5152 115.491 31.1525 126.128L127.919 222.894L146 208.5L159.5 216L133.075 238.416C131.664 239.827 129.764 240.533 127.919 240.533C126.074 240.533 124.174 239.773 122.763 238.362L20.8409 136.44C7.43576 123.034 0.000541317 105.288 0.000541317 86.3468C-0.0537303 67.406 7.32721 49.6049 20.7323 36.1997C34.0831 22.8489 51.8843 15.468 70.7708 15.468C89.7116 15.468 107.567 22.9032 120.972 36.3083L128.082 43.4179L135.083 36.4168C148.488 23.0117 166.289 15.6308 185.23 15.6308Z" fill="white"/>
<circle cx="181" cy="148" r="67.5" stroke="white" stroke-width="15"/>
<path d="M205.024 160.9C205.024 164.033 204.29 166.733 202.824 169C201.424 171.2 199.09 173.233 195.824 175.1C193.624 176.433 191.057 177.433 188.124 178.1C185.19 178.767 182.224 179.1 179.224 179.1C176.157 179.1 172.357 178.1 167.824 176.1C164.557 174.5 161.957 172.6 160.024 170.4C158.157 168.2 157.224 165.8 157.224 163.2C157.224 161.4 157.624 160.1 158.424 159.3C159.224 158.433 160.524 158 162.324 158C163.257 158 164.224 158.4 165.224 159.2C166.224 159.933 166.824 160.667 167.024 161.4C167.957 164.133 169.59 166.233 171.924 167.7C174.257 169.1 177.157 169.8 180.624 169.8C184.624 169.8 187.957 169.067 190.624 167.6C193.357 166.133 194.724 164.167 194.724 161.7C194.724 159.3 193.257 157.167 190.324 155.3C187.39 153.433 184.39 152.133 181.324 151.4C176.924 150.2 173.024 148.767 169.624 147.1C166.09 145.367 163.457 143.233 161.724 140.7C159.99 138.167 159.124 135.5 159.124 132.7C159.124 130.1 160.024 127.467 161.824 124.8C163.624 122.067 165.757 120.1 168.224 118.9C169.557 118.233 171.824 117.533 175.024 116.8C178.29 116 180.657 115.6 182.124 115.6C184.057 115.6 186.19 115.833 188.524 116.3C190.857 116.767 192.757 117.433 194.224 118.3C197.157 119.967 199.324 121.467 200.724 122.8C202.124 124.133 202.824 125.8 202.824 127.8C202.824 129 202.357 130.067 201.424 131C200.557 131.933 199.024 132.4 196.824 132.4C196.29 132.4 195.757 132.167 195.224 131.7C194.69 131.233 194.024 130.533 193.224 129.6C192.157 128.2 191.124 127.267 190.124 126.8C189.124 126.467 187.657 126.1 185.724 125.7C183.857 125.3 182.19 125.1 180.724 125.1C179.124 125.1 177.457 125.433 175.724 126.1C173.99 126.767 172.524 127.733 171.324 129C170.19 130.2 169.624 131.6 169.624 133.2C169.624 134.533 170.224 135.7 171.424 136.7C172.69 137.633 174.19 138.4 175.924 139C177.924 139.8 180.09 140.5 182.424 141.1C185.49 142.033 187.99 142.9 189.924 143.7C191.924 144.433 193.857 145.367 195.724 146.5C198.99 148.433 201.357 150.433 202.824 152.5C204.29 154.5 205.024 157.3 205.024 160.9Z" fill="white"/>
<line x1="182" y1="113" x2="182" y2="183" stroke="white" stroke-width="10" stroke-linecap="round"/>
</g>
<defs>
<clipPath id="clip0_7_12">
<rect width="256" height="256" fill="white"/>
</clipPath>
</defs>
</svg>
